<svg xmlns="http://www.w3.org/2000/svg" viewBox="0 0 1200 630" width="1200" height="630">
  <defs>
    <linearGradient id="bg" x1="0" x2="1" y1="0" y2="1"><stop offset="0" stop-color="#0b1220"/><stop offset="1" stop-color="#1e293b"/></linearGradient>
    <radialGradient id="glow" cx=".85" cy=".15" r=".5"><stop offset="0" stop-color="#f97316" stop-opacity=".55"/><stop offset="1" stop-color="#f97316" stop-opacity="0"/></radialGradient>
    <linearGradient id="cBody" x1="0" x2="0" y1="0" y2="1"><stop offset="0" stop-color="#ea580c"/><stop offset="1" stop-color="#9a3412"/></linearGradient>
  </defs>
  <rect width="1200" height="630" fill="url(#bg)"/>
  <rect width="1200" height="630" fill="url(#glow)"/>
  <g transform="translate(80,100)">
    <rect width="50" height="50" rx="10" fill="#f97316"/>
    <text x="25" y="35" text-anchor="middle" font-family="Inter, sans-serif" font-weight="900" font-size="30" fill="#fff">K</text>
    <text x="68" y="35" font-family="Inter, sans-serif" font-weight="800" font-size="24" fill="#fff">FIRMA_ADI</text>
  </g>
  <g transform="translate(80,210)">
    <text font-family="Inter, sans-serif" font-weight="900" font-size="72" fill="#ffffff">Satılık Yük</text>
    <text y="84" font-family="Inter, sans-serif" font-weight="900" font-size="72" fill="#fb923c">Konteyneri</text>
    <text y="160" font-family="Inter, sans-serif" font-weight="500" font-size="28" fill="#94a3b8">20 ft · 40 ft · High Cube · Reefer · Flat Rack</text>
    <text y="200" font-family="Inter, sans-serif" font-weight="500" font-size="22" fill="#cbd5e1">Türkiye geneli teslimat · WhatsApp'tan anında fiyat</text>
  </g>
  <g transform="translate(720,380)">
    <rect x="0" y="0" width="420" height="170" rx="10" fill="url(#cBody)"/>
    <g stroke="#fff" stroke-opacity=".22" stroke-width="3">
      <line x1="30" y1="10" x2="30" y2="160"/><line x1="60" y1="10" x2="60" y2="160"/><line x1="90" y1="10" x2="90" y2="160"/>
      <line x1="120" y1="10" x2="120" y2="160"/><line x1="150" y1="10" x2="150" y2="160"/><line x1="180" y1="10" x2="180" y2="160"/>
      <line x1="210" y1="10" x2="210" y2="160"/><line x1="240" y1="10" x2="240" y2="160"/><line x1="270" y1="10" x2="270" y2="160"/>
      <line x1="300" y1="10" x2="300" y2="160"/><line x1="330" y1="10" x2="330" y2="160"/><line x1="360" y1="10" x2="360" y2="160"/>
      <line x1="390" y1="10" x2="390" y2="160"/>
    </g>
    <text x="210" y="100" text-anchor="middle" font-family="Inter, sans-serif" font-weight="900" font-size="36" fill="#fff">40 ft HC</text>
  </g>
</svg>
