<svg xmlns="http://www.w3.org/2000/svg" viewBox="0 0 800 600" role="img" aria-label="20 ft Reefer Soğutuculu Konteyner">
  <defs>
    <linearGradient id="g" x1="0" x2="0" y1="0" y2="1"><stop offset="0" stop-color="#e2e8f0"/><stop offset="1" stop-color="#94a3b8"/></linearGradient>
    <linearGradient id="bg" x1="0" x2="0" y1="0" y2="1"><stop offset="0" stop-color="#dbeafe"/><stop offset="1" stop-color="#bfdbfe"/></linearGradient>
  </defs>
  <rect width="800" height="600" fill="url(#bg)"/>
  <ellipse cx="400" cy="500" rx="320" ry="22" fill="#0b1220" opacity=".15"/>
  <rect x="200" y="200" width="440" height="240" rx="12" fill="url(#g)"/>
  <g stroke="#475569" stroke-opacity=".25" stroke-width="2">
    <line x1="230" y1="210" x2="230" y2="430"/><line x1="260" y1="210" x2="260" y2="430"/><line x1="290" y1="210" x2="290" y2="430"/>
    <line x1="320" y1="210" x2="320" y2="430"/><line x1="350" y1="210" x2="350" y2="430"/><line x1="380" y1="210" x2="380" y2="430"/>
    <line x1="410" y1="210" x2="410" y2="430"/><line x1="440" y1="210" x2="440" y2="430"/><line x1="470" y1="210" x2="470" y2="430"/>
    <line x1="500" y1="210" x2="500" y2="430"/><line x1="530" y1="210" x2="530" y2="430"/><line x1="560" y1="210" x2="560" y2="430"/>
    <line x1="590" y1="210" x2="590" y2="430"/><line x1="620" y1="210" x2="620" y2="430"/>
  </g>
  <rect x="120" y="200" width="80" height="240" rx="6" fill="#1e293b"/>
  <circle cx="160" cy="260" r="22" fill="#0ea5e9"/>
  <g stroke="#0ea5e9" stroke-width="4" fill="none">
    <circle cx="160" cy="260" r="14" opacity=".4"/>
    <circle cx="160" cy="260" r="8"/>
  </g>
  <rect x="135" y="310" width="50" height="60" rx="3" fill="#0b1220"/>
  <text x="160" y="345" text-anchor="middle" font-family="Inter, sans-serif" font-weight="800" font-size="14" fill="#22d3ee">-18°C</text>
  <text x="430" y="345" text-anchor="middle" font-family="Inter, sans-serif" font-weight="800" font-size="36" fill="#0f172a">20 ft REEFER</text>
  <rect x="110" y="430" width="540" height="22" rx="4" fill="#0b1220"/>
</svg>
