<svg xmlns="http://www.w3.org/2000/svg" viewBox="0 0 800 600" role="img" aria-label="40 ft Reefer Soğutuculu Konteyner">
  <defs>
    <linearGradient id="g" x1="0" x2="0" y1="0" y2="1"><stop offset="0" stop-color="#e2e8f0"/><stop offset="1" stop-color="#94a3b8"/></linearGradient>
    <linearGradient id="bg" x1="0" x2="0" y1="0" y2="1"><stop offset="0" stop-color="#dbeafe"/><stop offset="1" stop-color="#bfdbfe"/></linearGradient>
  </defs>
  <rect width="800" height="600" fill="url(#bg)"/>
  <ellipse cx="400" cy="510" rx="360" ry="22" fill="#0b1220" opacity=".15"/>
  <rect x="150" y="200" width="570" height="240" rx="12" fill="url(#g)"/>
  <g stroke="#475569" stroke-opacity=".25" stroke-width="2">
    <line x1="180" y1="210" x2="180" y2="430"/><line x1="210" y1="210" x2="210" y2="430"/><line x1="240" y1="210" x2="240" y2="430"/>
    <line x1="270" y1="210" x2="270" y2="430"/><line x1="300" y1="210" x2="300" y2="430"/><line x1="330" y1="210" x2="330" y2="430"/>
    <line x1="360" y1="210" x2="360" y2="430"/><line x1="390" y1="210" x2="390" y2="430"/><line x1="420" y1="210" x2="420" y2="430"/>
    <line x1="450" y1="210" x2="450" y2="430"/><line x1="480" y1="210" x2="480" y2="430"/><line x1="510" y1="210" x2="510" y2="430"/>
    <line x1="540" y1="210" x2="540" y2="430"/><line x1="570" y1="210" x2="570" y2="430"/><line x1="600" y1="210" x2="600" y2="430"/>
    <line x1="630" y1="210" x2="630" y2="430"/><line x1="660" y1="210" x2="660" y2="430"/><line x1="690" y1="210" x2="690" y2="430"/>
  </g>
  <rect x="70" y="200" width="80" height="240" rx="6" fill="#1e293b"/>
  <circle cx="110" cy="260" r="22" fill="#0ea5e9"/>
  <g stroke="#0ea5e9" stroke-width="4" fill="none">
    <circle cx="110" cy="260" r="14" opacity=".4"/>
    <circle cx="110" cy="260" r="8"/>
  </g>
  <rect x="85" y="310" width="50" height="60" rx="3" fill="#0b1220"/>
  <text x="110" y="345" text-anchor="middle" font-family="Inter, sans-serif" font-weight="800" font-size="14" fill="#22d3ee">-25°C</text>
  <text x="430" y="345" text-anchor="middle" font-family="Inter, sans-serif" font-weight="800" font-size="42" fill="#0f172a">40 ft REEFER</text>
  <rect x="60" y="430" width="660" height="22" rx="4" fill="#0b1220"/>
</svg>
