<svg xmlns="http://www.w3.org/2000/svg" viewBox="0 0 800 600" role="img" aria-label="40 ft High Cube Konteyner">
  <defs>
    <linearGradient id="g" x1="0" x2="0" y1="0" y2="1"><stop offset="0" stop-color="#16a34a"/><stop offset="1" stop-color="#14532d"/></linearGradient>
    <linearGradient id="bg" x1="0" x2="0" y1="0" y2="1"><stop offset="0" stop-color="#f8fafc"/><stop offset="1" stop-color="#e2e8f0"/></linearGradient>
  </defs>
  <rect width="800" height="600" fill="url(#bg)"/>
  <ellipse cx="400" cy="520" rx="360" ry="22" fill="#0b1220" opacity=".15"/>
  <rect x="80" y="170" width="640" height="290" rx="12" fill="url(#g)"/>
  <g stroke="#fff" stroke-opacity=".22" stroke-width="3">
    <line x1="110" y1="180" x2="110" y2="450"/><line x1="140" y1="180" x2="140" y2="450"/><line x1="170" y1="180" x2="170" y2="450"/>
    <line x1="200" y1="180" x2="200" y2="450"/><line x1="230" y1="180" x2="230" y2="450"/><line x1="260" y1="180" x2="260" y2="450"/>
    <line x1="290" y1="180" x2="290" y2="450"/><line x1="320" y1="180" x2="320" y2="450"/><line x1="350" y1="180" x2="350" y2="450"/>
    <line x1="380" y1="180" x2="380" y2="450"/><line x1="410" y1="180" x2="410" y2="450"/><line x1="440" y1="180" x2="440" y2="450"/>
    <line x1="470" y1="180" x2="470" y2="450"/><line x1="500" y1="180" x2="500" y2="450"/><line x1="530" y1="180" x2="530" y2="450"/>
    <line x1="560" y1="180" x2="560" y2="450"/><line x1="590" y1="180" x2="590" y2="450"/><line x1="620" y1="180" x2="620" y2="450"/>
    <line x1="650" y1="180" x2="650" y2="450"/><line x1="680" y1="180" x2="680" y2="450"/>
  </g>
  <text x="400" y="340" text-anchor="middle" font-family="Inter, sans-serif" font-weight="800" font-size="52" fill="#fff">40 ft HC</text>
  <text x="400" y="385" text-anchor="middle" font-family="Inter, sans-serif" font-weight="600" font-size="20" fill="#fff" opacity=".85">HIGH CUBE</text>
  <rect x="70" y="450" width="660" height="22" rx="4" fill="#0b1220"/>
</svg>
